<mxfile host="app.diagrams.net" modified="2021-03-19T00:08:54.417Z" agent="5.0 (Windows NT 10.0; Win64; x64) AppleWebKit/537.36 (KHTML, like Gecko) Chrome/89.0.4389.90 Safari/537.36" etag="V9aqloqy5jTL26PdYdXy" version="14.4.9" type="github">
  <diagram name="Page-1" id="c7488fd3-1785-93aa-aadb-54a6760d102a">
    <mxGraphModel dx="1422" dy="726" grid="1" gridSize="10" guides="1" tooltips="1" connect="1" arrows="1" fold="1" page="1" pageScale="1" pageWidth="1100" pageHeight="850" background="#ffffff" math="0" shadow="0">
      <root>
        <mxCell id="0" />
        <mxCell id="1" parent="0" />
        <mxCell id="2b4e8129b02d487f-1" value="C" style="swimlane;html=1;childLayout=stackLayout;horizontal=1;startSize=20;horizontalStack=0;rounded=0;shadow=0;labelBackgroundColor=none;strokeWidth=1;fontFamily=Verdana;fontSize=8;align=center;" parent="1" vertex="1">
          <mxGeometry x="130" y="50" width="1210" height="940" as="geometry" />
        </mxCell>
        <mxCell id="2b4e8129b02d487f-2" value="Solicitação" style="swimlane;html=1;startSize=20;horizontal=0;fontStyle=0" parent="2b4e8129b02d487f-1" vertex="1">
          <mxGeometry y="20" width="1210" height="430" as="geometry" />
        </mxCell>
        <mxCell id="AJTmvHfCmDErMal3JAX8-39" style="edgeStyle=orthogonalEdgeStyle;rounded=0;orthogonalLoop=1;jettySize=auto;html=1;" edge="1" parent="2b4e8129b02d487f-2" source="AJTmvHfCmDErMal3JAX8-4" target="AJTmvHfCmDErMal3JAX8-38">
          <mxGeometry relative="1" as="geometry" />
        </mxCell>
        <mxCell id="AJTmvHfCmDErMal3JAX8-4" value="&lt;font style=&quot;font-size: 18px&quot;&gt;INÍCIO&amp;nbsp;&lt;/font&gt;" style="strokeWidth=2;html=1;shape=mxgraph.flowchart.terminator;whiteSpace=wrap;" vertex="1" parent="2b4e8129b02d487f-2">
          <mxGeometry x="30" y="20" width="120" height="70" as="geometry" />
        </mxCell>
        <mxCell id="AJTmvHfCmDErMal3JAX8-24" value="&lt;font style=&quot;font-size: 17px&quot;&gt;FIM!&amp;nbsp;&lt;/font&gt;" style="strokeWidth=2;html=1;shape=mxgraph.flowchart.terminator;whiteSpace=wrap;" vertex="1" parent="2b4e8129b02d487f-2">
          <mxGeometry x="570" y="25" width="120" height="60" as="geometry" />
        </mxCell>
        <mxCell id="AJTmvHfCmDErMal3JAX8-38" value="Inserir&amp;nbsp;&lt;br&gt;Título do&amp;nbsp;&lt;br&gt;Livro&amp;nbsp;&lt;br&gt;" style="html=1;strokeWidth=2;shape=manualInput;whiteSpace=wrap;rounded=1;size=26;arcSize=11;" vertex="1" parent="2b4e8129b02d487f-2">
          <mxGeometry x="40" y="130" width="100" height="90" as="geometry" />
        </mxCell>
        <mxCell id="AJTmvHfCmDErMal3JAX8-43" value="iNFORME" style="strokeWidth=2;html=1;shape=mxgraph.flowchart.display;whiteSpace=wrap;" vertex="1" parent="2b4e8129b02d487f-2">
          <mxGeometry x="980" y="310" width="100" height="60" as="geometry" />
        </mxCell>
        <mxCell id="AJTmvHfCmDErMal3JAX8-52" value="S" style="edgeStyle=orthogonalEdgeStyle;rounded=0;orthogonalLoop=1;jettySize=auto;html=1;entryX=0.5;entryY=1;entryDx=0;entryDy=0;entryPerimeter=0;fontSize=29;" edge="1" parent="2b4e8129b02d487f-2" source="AJTmvHfCmDErMal3JAX8-49" target="AJTmvHfCmDErMal3JAX8-24">
          <mxGeometry x="-1" y="67" relative="1" as="geometry">
            <mxPoint x="7" y="30" as="offset" />
          </mxGeometry>
        </mxCell>
        <mxCell id="AJTmvHfCmDErMal3JAX8-49" value="Nova operação?" style="rhombus;whiteSpace=wrap;html=1;" vertex="1" parent="2b4e8129b02d487f-2">
          <mxGeometry x="580" y="140" width="120" height="105" as="geometry" />
        </mxCell>
        <mxCell id="AJTmvHfCmDErMal3JAX8-57" value="Inserir&amp;nbsp;&lt;br&gt;Título do&amp;nbsp;&lt;br&gt;Livro&amp;nbsp;&lt;br&gt;" style="html=1;strokeWidth=2;shape=manualInput;whiteSpace=wrap;rounded=1;size=26;arcSize=11;" vertex="1" parent="2b4e8129b02d487f-2">
          <mxGeometry x="970" y="130" width="100" height="90" as="geometry" />
        </mxCell>
        <mxCell id="AJTmvHfCmDErMal3JAX8-86" style="edgeStyle=orthogonalEdgeStyle;rounded=0;orthogonalLoop=1;jettySize=auto;html=1;entryX=-0.03;entryY=0.611;entryDx=0;entryDy=0;entryPerimeter=0;fontSize=25;" edge="1" parent="2b4e8129b02d487f-2" source="AJTmvHfCmDErMal3JAX8-59" target="AJTmvHfCmDErMal3JAX8-20">
          <mxGeometry relative="1" as="geometry" />
        </mxCell>
        <mxCell id="AJTmvHfCmDErMal3JAX8-59" value="&quot;Insira os dados&lt;br&gt;Pessoais&quot;&amp;nbsp;" style="strokeWidth=2;html=1;shape=mxgraph.flowchart.display;whiteSpace=wrap;" vertex="1" parent="2b4e8129b02d487f-2">
          <mxGeometry x="180" y="245" width="100" height="70" as="geometry" />
        </mxCell>
        <mxCell id="AJTmvHfCmDErMal3JAX8-20" value="Inserir dados&amp;nbsp;&lt;br&gt;Pessoais&amp;nbsp;" style="html=1;strokeWidth=2;shape=manualInput;whiteSpace=wrap;rounded=1;size=26;arcSize=11;" vertex="1" parent="2b4e8129b02d487f-2">
          <mxGeometry x="350" y="225" width="100" height="90" as="geometry" />
        </mxCell>
        <mxCell id="2b4e8129b02d487f-3" value="Sistema&amp;nbsp;" style="swimlane;html=1;startSize=20;horizontal=0;" parent="2b4e8129b02d487f-1" vertex="1">
          <mxGeometry y="450" width="1210" height="310" as="geometry" />
        </mxCell>
        <mxCell id="AJTmvHfCmDErMal3JAX8-9" value="Consulta&amp;nbsp;&lt;br&gt;de&lt;br&gt;Livros" style="shape=parallelogram;html=1;strokeWidth=2;perimeter=parallelogramPerimeter;whiteSpace=wrap;rounded=1;arcSize=12;size=0.23;" vertex="1" parent="2b4e8129b02d487f-3">
          <mxGeometry x="10" y="65" width="150" height="60" as="geometry" />
        </mxCell>
        <mxCell id="AJTmvHfCmDErMal3JAX8-25" value="É aluno?&amp;nbsp;" style="rhombus;whiteSpace=wrap;html=1;" vertex="1" parent="2b4e8129b02d487f-3">
          <mxGeometry x="570" y="125" width="100" height="80" as="geometry" />
        </mxCell>
        <mxCell id="AJTmvHfCmDErMal3JAX8-26" value="" style="rhombus;whiteSpace=wrap;html=1;" vertex="1" parent="2b4e8129b02d487f-3">
          <mxGeometry x="890" y="190" width="80" height="80" as="geometry" />
        </mxCell>
        <mxCell id="AJTmvHfCmDErMal3JAX8-42" value="Não é aluno!" style="strokeWidth=2;html=1;shape=mxgraph.flowchart.display;whiteSpace=wrap;" vertex="1" parent="2b4e8129b02d487f-3">
          <mxGeometry x="580" y="20" width="100" height="60" as="geometry" />
        </mxCell>
        <mxCell id="AJTmvHfCmDErMal3JAX8-77" value="N" style="edgeStyle=orthogonalEdgeStyle;rounded=0;orthogonalLoop=1;jettySize=auto;html=1;entryX=0.4;entryY=1;entryDx=0;entryDy=0;entryPerimeter=0;fontSize=25;" edge="1" parent="2b4e8129b02d487f-3" source="AJTmvHfCmDErMal3JAX8-25" target="AJTmvHfCmDErMal3JAX8-42">
          <mxGeometry x="-1" y="40" relative="1" as="geometry">
            <mxPoint as="offset" />
          </mxGeometry>
        </mxCell>
        <mxCell id="2b4e8129b02d487f-4" value="Banco de Dados&amp;nbsp;" style="swimlane;html=1;startSize=20;horizontal=0;" parent="2b4e8129b02d487f-1" vertex="1">
          <mxGeometry y="760" width="1210" height="180" as="geometry" />
        </mxCell>
        <mxCell id="AJTmvHfCmDErMal3JAX8-29" value="Títulos da biblioteca&amp;nbsp;" style="strokeWidth=2;html=1;shape=mxgraph.flowchart.database;whiteSpace=wrap;" vertex="1" parent="2b4e8129b02d487f-4">
          <mxGeometry x="50" y="40" width="120" height="80" as="geometry" />
        </mxCell>
        <mxCell id="AJTmvHfCmDErMal3JAX8-30" value="Alunos&amp;nbsp;" style="strokeWidth=2;html=1;shape=mxgraph.flowchart.database;whiteSpace=wrap;" vertex="1" parent="2b4e8129b02d487f-4">
          <mxGeometry x="560" y="40" width="130" height="80" as="geometry" />
        </mxCell>
        <mxCell id="AJTmvHfCmDErMal3JAX8-74" value="" style="strokeWidth=2;html=1;shape=mxgraph.flowchart.database;whiteSpace=wrap;" vertex="1" parent="2b4e8129b02d487f-4">
          <mxGeometry x="1010" y="30" width="130" height="80" as="geometry" />
        </mxCell>
        <mxCell id="2b4e8129b02d487f-32" value="No" style="edgeStyle=orthogonalEdgeStyle;rounded=0;html=1;labelBackgroundColor=none;startArrow=none;startFill=0;startSize=5;endArrow=classicThin;endFill=1;endSize=5;jettySize=auto;orthogonalLoop=1;strokeWidth=1;fontFamily=Verdana;fontSize=8" parent="2b4e8129b02d487f-1" source="2b4e8129b02d487f-15" edge="1">
          <mxGeometry x="-0.9529" y="15" relative="1" as="geometry">
            <Array as="points">
              <mxPoint x="345" y="440" />
              <mxPoint x="155" y="440" />
            </Array>
            <mxPoint as="offset" />
            <mxPoint x="155" y="257" as="targetPoint" />
          </mxGeometry>
        </mxCell>
        <mxCell id="AJTmvHfCmDErMal3JAX8-75" style="edgeStyle=orthogonalEdgeStyle;rounded=0;orthogonalLoop=1;jettySize=auto;html=1;entryX=0.5;entryY=1;entryDx=0;entryDy=0;entryPerimeter=0;" edge="1" parent="2b4e8129b02d487f-1" source="AJTmvHfCmDErMal3JAX8-25" target="AJTmvHfCmDErMal3JAX8-43">
          <mxGeometry relative="1" as="geometry" />
        </mxCell>
        <mxCell id="AJTmvHfCmDErMal3JAX8-78" style="edgeStyle=orthogonalEdgeStyle;rounded=0;orthogonalLoop=1;jettySize=auto;html=1;entryX=0.292;entryY=0;entryDx=0;entryDy=0;entryPerimeter=0;fontSize=25;" edge="1" parent="2b4e8129b02d487f-1" source="AJTmvHfCmDErMal3JAX8-9" target="AJTmvHfCmDErMal3JAX8-29">
          <mxGeometry relative="1" as="geometry" />
        </mxCell>
        <mxCell id="AJTmvHfCmDErMal3JAX8-84" style="edgeStyle=orthogonalEdgeStyle;rounded=0;orthogonalLoop=1;jettySize=auto;html=1;exitX=0.5;exitY=1;exitDx=0;exitDy=0;entryX=0;entryY=0.5;entryDx=0;entryDy=0;fontSize=25;" edge="1" parent="2b4e8129b02d487f-1" source="AJTmvHfCmDErMal3JAX8-20" target="AJTmvHfCmDErMal3JAX8-25">
          <mxGeometry relative="1" as="geometry" />
        </mxCell>
        <mxCell id="AJTmvHfCmDErMal3JAX8-85" style="edgeStyle=orthogonalEdgeStyle;rounded=0;orthogonalLoop=1;jettySize=auto;html=1;exitX=1;exitY=0.5;exitDx=0;exitDy=0;entryX=0.2;entryY=0.86;entryDx=0;entryDy=0;entryPerimeter=0;fontSize=25;" edge="1" parent="2b4e8129b02d487f-1" source="AJTmvHfCmDErMal3JAX8-9" target="AJTmvHfCmDErMal3JAX8-59">
          <mxGeometry relative="1" as="geometry" />
        </mxCell>
        <mxCell id="AJTmvHfCmDErMal3JAX8-87" style="edgeStyle=orthogonalEdgeStyle;rounded=0;orthogonalLoop=1;jettySize=auto;html=1;exitX=0.5;exitY=0;exitDx=0;exitDy=0;exitPerimeter=0;entryX=0.5;entryY=1;entryDx=0;entryDy=0;fontSize=25;" edge="1" parent="2b4e8129b02d487f-1" source="AJTmvHfCmDErMal3JAX8-42" target="AJTmvHfCmDErMal3JAX8-49">
          <mxGeometry relative="1" as="geometry" />
        </mxCell>
        <mxCell id="AJTmvHfCmDErMal3JAX8-67" style="edgeStyle=orthogonalEdgeStyle;rounded=0;orthogonalLoop=1;jettySize=auto;html=1;" edge="1" parent="1" source="AJTmvHfCmDErMal3JAX8-49">
          <mxGeometry relative="1" as="geometry">
            <mxPoint x="260" y="262.5" as="targetPoint" />
          </mxGeometry>
        </mxCell>
        <mxCell id="AJTmvHfCmDErMal3JAX8-71" style="edgeStyle=orthogonalEdgeStyle;rounded=0;orthogonalLoop=1;jettySize=auto;html=1;" edge="1" parent="1" source="AJTmvHfCmDErMal3JAX8-43">
          <mxGeometry relative="1" as="geometry">
            <mxPoint x="1160" y="300" as="targetPoint" />
          </mxGeometry>
        </mxCell>
        <mxCell id="AJTmvHfCmDErMal3JAX8-79" value="s" style="edgeStyle=orthogonalEdgeStyle;rounded=0;orthogonalLoop=1;jettySize=auto;html=1;fontSize=25;" edge="1" parent="1" source="AJTmvHfCmDErMal3JAX8-25">
          <mxGeometry x="-1" y="86" relative="1" as="geometry">
            <mxPoint x="750" y="840" as="targetPoint" />
            <mxPoint x="-36" y="-70" as="offset" />
          </mxGeometry>
        </mxCell>
        <mxCell id="AJTmvHfCmDErMal3JAX8-80" style="edgeStyle=orthogonalEdgeStyle;rounded=0;orthogonalLoop=1;jettySize=auto;html=1;fontSize=25;" edge="1" parent="1" source="AJTmvHfCmDErMal3JAX8-38">
          <mxGeometry relative="1" as="geometry">
            <mxPoint x="220" y="550" as="targetPoint" />
          </mxGeometry>
        </mxCell>
      </root>
    </mxGraphModel>
  </diagram>
</mxfile>
